<svg width="28" height="28" viewBox="0 0 28 28" fill="none" xmlns="http://www.w3.org/2000/svg">
<g id="Component 1">
<path id="Vector" d="M13.9996 25.6664C7.55618 25.6664 2.33301 20.4432 2.33301 13.9997C2.33301 7.55618 7.55618 2.33301 13.9996 2.33301C20.4431 2.33301 25.6663 7.55618 25.6663 13.9997C25.6663 20.4432 20.4431 25.6664 13.9996 25.6664ZM13.9996 23.3331C16.475 23.3331 18.849 22.3497 20.5993 20.5994C22.3496 18.849 23.333 16.4751 23.333 13.9997C23.333 11.5244 22.3496 9.15035 20.5993 7.40002C18.849 5.64968 16.475 4.66635 13.9996 4.66635C11.5243 4.66635 9.15036 5.64968 7.40002 7.40002C5.64968 9.15035 4.66635 11.5244 4.66635 13.9997C4.66635 16.4751 5.64968 18.849 7.40002 20.5994C9.15036 22.3497 11.5243 23.3331 13.9996 23.3331ZM9.33301 15.1664H18.6663C18.6663 16.4041 18.1746 17.591 17.2995 18.4662C16.4243 19.3414 15.2373 19.8331 13.9996 19.8331C12.762 19.8331 11.575 19.3414 10.6998 18.4662C9.82468 17.591 9.33301 16.4041 9.33301 15.1664ZM9.33301 12.8331C8.86889 12.8331 8.42377 12.6487 8.09558 12.3205C7.76739 11.9923 7.58301 11.5472 7.58301 11.0831C7.58301 10.6189 7.76739 10.1738 8.09558 9.84557C8.42377 9.51739 8.86889 9.33301 9.33301 9.33301C9.79714 9.33301 10.2422 9.51739 10.5704 9.84557C10.8986 10.1738 11.083 10.6189 11.083 11.0831C11.083 11.5472 10.8986 11.9923 10.5704 12.3205C10.2422 12.6487 9.79714 12.8331 9.33301 12.8331ZM18.6663 12.8331C18.2022 12.8331 17.7571 12.6487 17.4289 12.3205C17.1007 11.9923 16.9163 11.5472 16.9163 11.0831C16.9163 10.6189 17.1007 10.1738 17.4289 9.84557C17.7571 9.51739 18.2022 9.33301 18.6663 9.33301C19.1304 9.33301 19.5756 9.51739 19.9037 9.84557C20.2319 10.1738 20.4163 10.6189 20.4163 11.0831C20.4163 11.5472 20.2319 11.9923 19.9037 12.3205C19.5756 12.6487 19.1304 12.8331 18.6663 12.8331Z" fill="#0C0407"/>
</g>
</svg>
