<svg width="28" height="28" viewBox="0 0 28 28" fill="none" xmlns="http://www.w3.org/2000/svg">
<g id="Component 1">
<path id="Vector" d="M14.0004 16.3336V18.6669C12.1438 18.6669 10.3634 19.4044 9.05057 20.7172C7.73782 22.03 7.00032 23.8104 7.00032 25.6669H4.66699C4.66699 23.1916 5.65032 20.8176 7.40066 19.0673C9.151 17.3169 11.525 16.3336 14.0004 16.3336ZM14.0004 15.1669C10.1329 15.1669 7.00032 12.0344 7.00032 8.16699C7.00032 4.29949 10.1329 1.16699 14.0004 1.16699C17.8679 1.16699 21.0004 4.29949 21.0004 8.16699C21.0004 12.0344 17.8679 15.1669 14.0004 15.1669ZM14.0004 12.8336C16.5787 12.8336 18.667 10.7453 18.667 8.16699C18.667 5.58866 16.5787 3.50032 14.0004 3.50032C11.422 3.50032 9.33365 5.58866 9.33365 8.16699C9.33365 10.7453 11.422 12.8336 14.0004 12.8336ZM21.0004 25.0836L17.5715 26.8861L18.226 23.0688L15.4529 20.3645L19.2865 19.8068L21.0004 16.3336L22.7154 19.8068L26.5479 20.3645L23.7747 23.0688L24.428 26.8861L21.0004 25.0836Z" fill="#0C0407"/>
</g>
</svg>
