<svg width="28" height="28" viewBox="0 0 28 28" fill="none" xmlns="http://www.w3.org/2000/svg">
<g id="Component 1">
<path id="Vector" d="M14.0004 8.16702C16.4757 8.16702 18.8497 9.15034 20.6 10.9006C22.3504 12.651 23.3337 15.025 23.3337 17.5003C23.3337 19.9757 22.3504 22.3496 20.6 24.1C18.8497 25.8503 16.4757 26.8336 14.0004 26.8336C11.525 26.8336 9.151 25.8503 7.40066 24.1C5.65032 22.3496 4.66699 19.9757 4.66699 17.5003C4.66699 15.025 5.65032 12.651 7.40066 10.9006C9.151 9.15034 11.525 8.16702 14.0004 8.16702ZM14.0004 10.5003C12.1438 10.5003 10.3634 11.2378 9.05057 12.5506C7.73782 13.8633 7.00032 15.6438 7.00032 17.5003C7.00032 19.3568 7.73782 21.1373 9.05057 22.4501C10.3634 23.7628 12.1438 24.5003 14.0004 24.5003C15.8569 24.5003 17.6374 23.7628 18.9501 22.4501C20.2629 21.1373 21.0004 19.3568 21.0004 17.5003C21.0004 15.6438 20.2629 13.8633 18.9501 12.5506C17.6374 11.2378 15.8569 10.5003 14.0004 10.5003ZM14.0004 12.2503L15.5439 15.377L18.9937 15.8786L16.497 18.3111L17.0862 21.7481L14.0004 20.1253L10.9145 21.747L11.5037 18.3111L9.00699 15.8775L12.4569 15.3758L14.0004 12.2503ZM21.0004 2.33368V5.83368L19.4102 7.16135C18.0906 6.46903 16.6499 6.03765 15.167 5.89085V2.33368H21.0004ZM12.8337 2.33252V5.89085C11.3513 6.03744 9.91095 6.46841 8.59165 7.16018L7.00032 5.83368V2.33368L12.8337 2.33252Z" fill="#0C0407"/>
</g>
</svg>
