<svg width="20" height="15" viewBox="0 0 20 15" fill="none" xmlns="http://www.w3.org/2000/svg">
<path id="Vector" d="M0 3.30334C1.03347 3.47855 2.06407 3.6851 3.10474 3.81187C3.50632 3.86173 3.93094 3.73068 4.45776 3.65803C5.99933 3.40305 7.59416 3.4757 8.91119 2.66518C10.2412 1.84611 11.479 0.911659 12.7946 0C12.7917 0.0982882 12.7658 0.333327 12.8119 0.428766C12.8464 0.63104 12.9098 1.0712 13.0321 1.40025C13.0221 1.53985 13.0307 1.65665 13.0537 1.82474C13.0566 1.94725 13.0465 2.01704 13.012 2.14097C13.0552 3.78338 13.0796 5.37736 13.2178 6.96137C13.2495 7.32033 13.677 7.64654 13.9605 7.98841C14.0152 8.02972 14.0066 8.03114 14.08 8.06675C14.1102 8.08242 14.1059 8.08243 14.1361 8.09525C14.1836 8.12373 14.3607 8.28612 14.5017 8.42714C14.5219 8.4542 14.5536 8.50406 14.5622 8.54252C14.5679 8.56246 14.5795 8.58241 14.591 8.5995C15.125 9.29892 15.8332 9.62227 16.6637 9.70632C16.7241 9.71201 16.7846 9.72341 16.8407 9.74762C16.8652 9.75759 16.8954 9.76756 16.9544 9.78038C17.8022 10.1778 18.6068 10.5012 19.4071 10.8373C19.613 10.9242 19.803 11.0496 20.0002 11.1564C19.8418 11.343 19.7051 11.5539 19.5208 11.7105C19.256 11.9342 18.9566 12.1179 18.6731 12.3188C18.5593 12.3701 18.4456 12.4213 18.2585 12.4513C18.1088 12.4726 18.0311 12.5139 17.9217 12.5837C17.8037 12.6208 17.7173 12.6293 17.5705 12.6421C17.1617 12.7347 16.8062 12.796 16.4708 12.9142C15.3783 13.2988 14.2945 13.7019 13.1617 14.125C13.0494 14.1563 12.9818 14.162 12.8709 14.1506C12.3297 14.2831 11.8302 14.4327 11.3135 14.6022C11.2775 14.6136 11.2516 14.6179 11.1955 14.6221C10.886 14.5595 10.6183 14.5125 10.3477 14.4184C10.1836 14.1863 10.0541 13.984 9.88708 13.8188C8.31672 12.259 6.74636 10.6992 5.15585 9.16074C4.9457 8.95705 4.61897 8.87158 4.33973 8.67358C4.31814 8.3488 4.3023 8.08242 4.28791 7.81605C3.34512 6.90012 2.40376 5.98275 1.45953 5.06967C1.32567 4.94004 1.1731 4.82752 0.983097 4.62952C0.847796 4.48707 0.758555 4.42155 0.669314 4.35602C0.499467 4.23779 0.328183 4.11813 0.122352 3.92298C0.0575804 3.66372 0.0302283 3.48282 0.00144078 3.30049L0 3.30334Z" fill="#E1511A"/>
</svg>
