<svg width="9" height="15" viewBox="0 0 9 15" fill="none" xmlns="http://www.w3.org/2000/svg">
<path id="Vector" d="M6.81511 13.7567C6.78989 13.6693 6.76466 13.5833 6.72262 13.4613C6.66376 13.1187 6.62312 12.8081 6.58248 12.4267C6.56706 12.3088 6.55024 12.2616 6.53342 12.2159C6.52221 12.1826 6.511 12.1493 6.48298 12.0259C6.43813 11.8469 6.4101 11.7582 6.38347 11.6694C6.34423 11.4808 6.3036 11.2936 6.24894 11.0245C6.2041 10.8678 6.17326 10.7901 6.14383 10.7124C6.14383 10.7124 6.12982 10.6487 6.1158 10.5835C6.06816 10.4448 6.03452 10.3727 6.00089 10.3019C5.92521 10.1286 5.84953 9.9552 5.74442 9.72358C5.5216 9.51277 5.3282 9.36161 5.13481 9.20905C4.77324 9.18547 4.41307 9.16189 4.01927 9.11751C3.97303 9.08561 3.96182 9.09116 3.95201 9.11335C3.53579 9.1508 3.12096 9.18824 2.67671 9.16882C2.64308 9.02597 2.63607 8.93999 2.63607 8.80684C2.68933 8.49895 2.73557 8.23683 2.78322 7.97609C2.7636 7.94419 2.74538 7.91229 2.72576 7.88039C2.62206 8.06208 2.51975 8.24653 2.40204 8.39216C2.40204 8.06208 2.39783 7.74308 2.43707 7.4768C2.60244 6.3437 2.38241 5.27301 1.93256 5.11906C1.92695 4.92351 1.92135 4.72657 1.91854 4.60868C1.71954 4.49218 1.52054 4.50605 1.3804 4.26612C1.07489 3.74326 0.783394 3.73632 0.472279 3.79734C0.319524 3.82786 0.158361 3.77654 0 3.71413C0.00560569 3.61149 0.0126113 3.55602 0.0378369 3.48113C0.330734 2.56161 0.606814 1.66151 0.87869 0.753088C0.902514 0.676808 0.889903 0.528406 0.919333 0.411907C1.72515 0.259347 2.50574 0.106792 3.30034 0C3.3606 0.457678 3.43909 0.877906 3.4461 1.27872C3.46431 2.3189 3.4503 3.34938 3.43629 4.41591C3.37462 4.85278 3.32557 5.25914 3.27652 5.6655L2.64168 3.56989C2.74538 3.05951 3.52177 3.18988 3.63809 2.65037C3.68574 2.45066 4.26733 1.864 4.05151 2.65037C4.08515 2.54081 3.89034 3.47281 3.92257 3.35492C3.97443 3.18017 4.00807 3.02484 4.05151 2.88754C4.35001 1.92364 4.64992 0.962513 4.96103 0.044382C5.08296 0.141465 5.19507 0.242711 5.30018 0.237164C6.04153 0.202491 6.78008 0.141467 7.52143 0.0984733C7.8844 0.0762828 7.8802 0.0873774 7.94046 0.981931C7.9783 1.54779 8.04136 2.11087 8.09742 2.72388C8.10162 2.83622 8.10161 2.89863 8.10021 2.96243C8.07639 3.26893 8.03715 3.56989 8.03014 3.88611C7.98109 6.19669 7.96147 8.52391 7.883 10.8179C7.84376 11.9468 7.71343 13.0272 7.59991 14.1048C7.4906 15.1381 7.35186 15.2282 6.94544 14.6249C6.9062 14.4391 6.88519 14.2601 6.86417 13.998C6.85015 13.8621 6.83473 13.808 6.81792 13.7553M2.8603 7.19248C2.91075 6.98306 2.9626 6.77364 3.01305 6.56699L2.94158 6.44911C2.91496 6.52539 2.88272 6.59057 2.8645 6.68072C2.82526 6.87488 2.79303 7.08015 2.77341 7.27154C2.79163 7.26183 2.81125 7.25351 2.8603 7.19387M3.04949 6.02055C3.0551 6.03858 3.06211 6.05661 3.06771 6.07603C3.06491 6.058 3.0621 6.03858 3.04949 6.02055Z" fill="#F78135"/>
</svg>
