<svg width="15" height="13" viewBox="0 0 15 13" fill="none" xmlns="http://www.w3.org/2000/svg">
<path id="Vector" d="M5.06218 10.5242C4.76779 10.0651 4.48775 9.65297 4.2192 9.23372C4.13591 9.10297 3.99805 8.92105 4.03538 8.81304C4.29531 8.06265 4.50355 7.27388 4.90278 6.59881C5.55476 5.49311 5.41977 4.03496 4.57104 3.03016C3.72376 2.02822 2.77163 1.7724 1.53373 2.17318C0.742453 2.429 0.294397 2.16323 0 1.40147C0.629003 0.977947 1.26662 0.609852 1.99041 0.265921C2.20151 0.248867 2.35086 0.0598478 2.47724 0.0186329C2.86642 0.0072633 3.43654 -0.0168972 3.90327 0.0186329C4.06985 0.0712175 4.32547 0.160755 4.41451 0.166439C4.7764 0.292926 5.08947 0.317086 5.43556 0.534531C5.51885 0.824456 5.24169 1.26929 5.4011 1.38441C5.87931 1.73118 6.43364 1.9799 6.90324 2.33804C8.16842 3.30161 9.55855 3.99232 11.1009 4.40163C11.773 4.57928 12.3603 4.87062 12.3876 5.70771C12.3919 5.83846 13.1401 6.13265 13.232 6.26056C13.4274 7.8921 13.4762 9.34884 13.7533 10.9662C13.8639 11.6114 14.2057 12.2367 14.5188 12.9459C14.1928 12.9743 13.5207 13.0013 13.2694 12.9999C12.0774 12.9928 10.8855 12.9971 9.69498 12.9544C7.78068 12.8848 6.30439 11.9567 5.05931 10.5256H5.06075L5.06218 10.5242Z" fill="#F98938"/>
</svg>
