<svg width="21" height="30" viewBox="0 0 21 30" fill="none" xmlns="http://www.w3.org/2000/svg">
<path id="Vector" d="M20.9669 14.4756C21.0096 14.5839 21.0167 14.6275 20.9499 14.7049C20.8604 14.7415 20.8277 14.7457 20.7609 14.7119C20.5861 14.3898 20.2947 14.7147 20.1384 14.3955C19.9764 14.4855 19.9977 14.7133 19.9465 14.8118C19.695 15.3026 19.5926 15.3688 19.3311 15.8512C19.1094 16.2591 18.7783 16.7977 18.4628 17.1325C18.2212 17.3885 17.674 17.5249 17.3812 17.7415C16.9179 18.0833 16.1249 17.9159 15.5422 17.6008C14.6937 17.1437 14.4862 16.8217 13.6236 16.3899C13.5582 16.4321 13.6889 16.3463 13.6236 16.3899C14.0713 16.9243 13.8908 17.3969 13.5127 18.0003C13.274 18.1241 12.9584 18.1902 12.8078 18.3828C11.0796 20.6009 8.76589 21.096 6.04001 20.6093C5.85668 20.5671 5.75577 20.5741 5.65629 20.5812C5.39194 20.591 0.643688 29.826 0.325337 29.8246C-0.749095 19.667 1.05584 17.9103 2.56801 16.9159C3.52732 16.2844 4.2095 16.0818 5.09491 15.3533C5.41468 15.0903 6.55022 14.2239 6.71935 13.8216C7.41005 12.1704 8.385 10.8272 8.31394 9.03957C8.24715 7.36726 7.66729 6.34475 7.27504 4.75824C7.04907 3.84261 7.60619 1.95652 8.25426 1.28844C8.64651 0.884781 9.72378 0.288432 10.2127 0.0971502C10.9076 -0.175708 12.5193 0.226547 13.3422 0.0971502C14.0599 0.625988 14.7875 1.08872 15.3461 1.70054C17.7209 4.30394 19.3581 7.34617 20.3999 10.6739C20.7708 11.8596 20.7765 13.1578 20.9726 14.4728L20.9698 14.4756H20.9669Z" fill="#F26320"/>
</svg>
