<svg width="13" height="9" viewBox="0 0 13 9" fill="none" xmlns="http://www.w3.org/2000/svg">
<path id="Vector" d="M12.3208 0C11.757 0.98901 9.08307 3.75238 7.91456 4.01881C7.32396 4.15412 6.65866 4.17365 6.05538 4.21549C4.15391 4.3508 2.867 5.35237 1.52371 6.54783C1.02473 6.99142 0.652612 7.57032 0.356609 8.2357C0.248074 8.47981 0.146592 8.72812 0 9.00013C0.0352385 7.26623 0.723089 4.54192 1.37852 3.48176C2.14108 2.6169 2.43286 2.52065 3.41531 2.33652C3.9467 2.2863 4.64584 2.27374 5.17018 2.35883C7.08434 2.66711 10.1191 1.31263 11.7668 0.051612L12.3208 0Z" fill="#E55920"/>
</svg>
