<svg width="16" height="23" viewBox="0 0 16 23" fill="none" xmlns="http://www.w3.org/2000/svg">
<path id="Vector" d="M14.6554 17.5023C14.6312 17.8934 11.4912 15.0471 11.5112 15.4368C11.5526 16.2218 11.5269 16.9517 10.9891 17.6294C10.7423 17.94 10.7437 18.4426 10.6153 18.9197C10.4969 18.9085 10.3014 18.8901 10.1089 18.8718C9.9291 19.9716 8.5125 23.5336 7.39832 22.9321C7.13726 22.791 5.96888 21.7617 5.60937 21.725C5.5195 21.7886 5.9004 19.8275 5.879 19.8417C5.68783 19.4506 5.34688 19.1005 5.74633 18.6995C5.62078 18.5767 5.48954 18.5583 5.41535 18.5089C4.946 18.0854 4.5109 17.6774 3.99732 17.1762C3.90745 17.0604 3.8247 17.0039 3.77905 16.9644C3.74054 16.963 3.508 16.8712 3.48232 16.7569C3.29116 16.5098 3.11854 16.4886 2.93166 16.322C2.77473 16.1441 2.40809 15.8123 2.27399 15.537C2.35246 15.1163 1.93304 15.0725 1.98867 14.7492C1.83555 14.6476 1.74568 14.5563 1.71905 14.4754C1.71905 14.4754 1.73474 14.1436 1.71191 14.0829C1.66626 13.9812 1.53359 13.9798 1.50078 13.9459C1.46226 13.9163 1.19977 14.0151 1.2069 13.8711C1.29963 13.2443 1.16696 13.3501 0.972939 12.8391C0.904462 12.7148 0.756094 12.5129 0.738975 12.3407C0.920153 12.1614 0.721856 11.8141 0.694751 11.7294C0.365208 10.6691 0.479336 10.8696 0.222548 10.2032C0.243947 10.127 0.0670519 10.2145 0.131249 9.98295C0.131249 9.79094 0.235388 9.69212 0 9.63C0.059917 9.51281 0.118406 9.41823 0.279611 9.30669C0.679058 8.86056 1.03143 8.49207 1.46512 8.03606C1.7861 7.92735 2.27399 7.7777 2.75048 7.59699C3.24122 7.40921 3.32254 7.10849 2.99871 6.67224C2.87317 6.50282 2.7733 6.23599 2.81182 6.04399C2.90455 5.59079 3.09856 5.15737 3.23124 4.71123C3.3311 4.37381 3.29401 3.8359 3.50372 3.72013C4.25696 3.30506 3.83041 2.91399 3.57648 2.5215C3.07431 1.74642 2.91596 0.899327 2.94877 0C3.2184 0.122828 3.4866 0.245648 3.80901 0.43342C4.03156 0.707313 4.1571 1.02215 4.37394 1.10686C6.33694 1.87489 8.31563 2.60197 10.3257 3.36294C10.5154 3.46318 10.6695 3.53942 10.8607 3.64954C11.263 3.89096 11.6282 4.09991 12.029 4.30321C12.0875 4.29051 12.1104 4.28486 12.1332 4.2778C12.1617 4.67594 12.1917 5.07407 12.2145 5.59362C12.2573 6.1767 12.3072 6.63695 12.3557 7.09861C12.3657 7.64216 12.3771 8.18571 12.3843 8.83938C12.3557 9.21775 13.8722 8.84926 13.808 9.15704C13.0277 9.48741 13.9264 9.51706 14.1033 10.271C14.1675 10.5449 13.7923 11.776 13.7224 12.064C13.6183 12.4932 14.7025 13.7709 14.577 14.2269C14.7738 14.4725 15.3445 14.9031 15.5399 15.1163M3.97307 15.6415L3.8889 15.6246C3.87463 15.6147 4.00731 15.6345 3.97307 15.6415Z" fill="#F98938"/>
</svg>
