<svg width="23" height="31" viewBox="0 0 23 31" fill="none" xmlns="http://www.w3.org/2000/svg">
<path id="Vector" d="M15.357 4.25202C15.3713 3.32083 15.5432 3.07988 15.092 2.54271C15.1579 2.50019 15.2252 2.45767 15.2911 2.41373C16.1604 2.84885 17.0412 3.26413 17.8962 3.72619C18.4834 4.04225 18.9331 3.83248 19.4 3.48949C19.695 3.27122 20.0817 3.15216 20.3252 2.89421C20.6431 2.55688 20.8909 2.1416 21.1129 1.73199C21.3778 1.24442 21.5712 0.720009 21.8247 0.226775C21.8762 0.126144 22.0538 0.0892924 22.2171 0C22.3746 0.321736 22.515 0.608037 22.6883 0.990719C22.6668 1.50521 22.6181 1.92333 22.5579 2.34144C22.3102 4.04083 21.7144 5.59707 20.5314 6.88118C20.0387 7.41552 20.0459 7.98387 20.235 8.66278C20.2421 8.78609 20.2478 8.87679 20.2536 8.96041C20.2579 9.01286 20.2507 9.06388 20.2335 9.11349C20.2335 9.11349 20.2335 9.11349 20.2335 9.11491C20.2063 9.19428 20.1634 9.26657 20.1061 9.32893C20.1003 9.3346 20.0932 9.3431 20.086 9.3516C20.0574 9.4494 20.0402 9.47916 20.0201 9.57271C19.9285 10.0178 19.8726 10.1524 19.8325 10.6045C19.8254 10.6825 19.7337 11.0297 19.685 11.2126C19.5905 11.5159 19.4917 11.7682 19.3441 12.0261C19.052 12.4442 18.7441 12.8312 18.5779 13.2691C18.2414 14.1564 17.9549 15.0096 16.9682 15.4717C16.5715 15.6573 16.3151 16.1775 16.0473 16.5786C15.8683 16.8479 15.7823 17.1782 15.6491 17.4772C15.0576 18.8067 14.2828 20.0553 14.0924 21.5506C13.9778 22.4521 13.4407 23.1919 12.8177 23.8708C12.3967 24.33 12.0801 24.88 11.7164 25.3845C11.7164 25.3789 11.7293 25.3789 11.6777 25.3803C10.8241 25.8806 10.045 26.3979 9.9505 27.4567C8.68589 28.3652 7.46855 29.3488 6.14522 30.1624C4.83478 30.9689 3.29948 30.9915 1.73125 31C1.56512 29.0129 1.46343 27.0287 1.36318 24.9168C1.35172 24.4179 1.34169 24.34 1.35745 23.9459C1.48491 23.8935 1.79426 23.8056 1.80572 23.7844C1.81288 23.7178 1.80143 23.7659 1.80859 23.7433C1.81145 23.7433 1.69688 23.4144 1.73125 23.4088C1.75417 23.3209 1.40615 23.2585 1.35602 23.1565C1.11685 23.0204 1.20278 22.4152 0.9679 22.2636C0.701516 22.204 1.2572 21.2757 0.9679 21.2672C0.670008 21.2573 2.60344 21.2402 2.36427 21.2133C1.81145 21.0787 1.26579 20.9029 0.70581 20.8193C-0.0775902 20.7017 -0.154922 20.6024 0.210283 19.898C0.413652 19.5068 0.628476 19.1213 0.93353 18.7089C-0.000248922 17.1725 0.48955 17.7763 0.695784 16.8777C0.741613 16.6764 2.48027 16.4369 2.4946 16.2271C2.57766 15.6814 2.84548 16.0188 2.9085 15.4717C2.9486 15.1216 2.93427 14.7673 3.00445 14.325C3.16915 13.9849 3.27227 13.7326 3.38255 13.4846C3.6833 12.8085 3.81793 11.9482 4.32492 11.496C5.68978 10.2814 7.24369 9.31901 9.1757 9.18153C9.78867 9.13759 10.3988 9.0072 11.0003 8.87113C12.189 8.60042 13.0497 7.88324 13.6727 6.86275C13.9592 6.55803 14.2456 6.25188 14.6237 5.90889C14.7941 5.75865 14.6996 5.52762 14.7798 5.41565C14.9259 5.01455 14.9631 4.741 15.3398 4.29737L15.357 4.25202Z" fill="#F25E1D"/>
</svg>
