<svg width="39" height="57" viewBox="0 0 39 57" fill="none" xmlns="http://www.w3.org/2000/svg">
<g id="Group">
<path id="Vector" d="M8.80139 55.7401C9.3092 55.4709 9.81701 55.2113 10.3248 54.9407C11.293 54.423 11.8887 53.6264 11.9264 52.5371C11.9961 50.5448 12.0254 48.5498 11.9961 46.5576C11.9905 46.2152 11.6794 45.8079 11.3976 45.5497C10.0137 44.2809 8.72048 42.95 7.81646 41.1855C7.34632 39.6876 6.84828 38.2848 6.51067 36.8462C6.30699 35.9751 5.88149 35.4338 5.04584 35.108C4.86169 34.9064 4.69288 34.7435 4.52129 34.553C4.50315 34.4867 4.47385 34.4633 4.42363 34.4108C4.31761 34.2534 4.22134 34.1416 4.12787 34.0256C4.13206 34.0228 4.12787 34.0146 4.12508 33.9649C3.81119 33.0744 3.49869 32.2335 3.18898 31.3665C3.13876 31.2837 3.08714 31.2271 3.02576 31.1166C3.01878 30.9937 2.95182 30.8723 2.96996 30.7577C2.90857 30.4967 2.88765 30.4733 2.82766 30.1957C2.68536 29.8409 2.67141 29.7829 2.41053 28.8206L2.39379 28.7985C2.38821 28.6674 2.40495 28.6315 2.41471 28.5224C2.40495 28.4216 2.37984 28.3443 2.3324 28.2104C2.29613 27.9149 2.28079 27.6761 2.29055 27.4096C2.33659 27.3102 2.35891 27.2398 2.42029 27.1459C2.89741 26.8394 2.68117 26.6047 2.45099 26.2927C1.87342 25.5071 1.27912 24.7216 0.821534 23.8669C0.453232 23.178 0.276056 22.3897 0.0137809 21.6455C-0.000169909 20.8061 -0.0127275 19.9681 0.0249397 19.0347C0.337438 18.4425 0.19235 17.6514 1.07683 17.592C1.14659 17.5878 1.19681 17.407 1.27075 17.32C1.81344 16.6794 2.29334 15.967 2.91834 15.4175C4.61476 13.9292 6.56926 13.6903 8.67583 14.458C8.93253 14.5518 9.20178 14.6071 9.50172 14.6789C9.58682 14.6761 9.63425 14.6747 9.71238 14.712C10.0319 14.886 10.322 15.0226 10.6359 15.2021C11.1493 15.4327 11.6278 15.6605 12.1301 15.7999C13.0648 16.0595 14.0148 16.2694 14.983 16.5303C15.1058 16.6035 15.2034 16.6449 15.3234 16.7277C15.4936 16.8754 15.6415 16.9831 15.7921 17.0881C15.7935 17.0839 15.7852 17.0839 15.7977 17.1198C15.8507 17.1792 15.8926 17.204 15.9512 17.2703C16.1521 17.5589 16.3348 17.8046 16.5162 18.0904C16.5497 18.1967 16.5845 18.2644 16.6138 18.3831C16.625 18.5363 16.6417 18.6371 16.6445 18.7987C16.625 20.4361 16.4939 22.0266 16.6613 23.5853C16.7561 24.4634 17.3449 25.2904 17.7104 26.1574C17.709 26.1754 17.7383 26.1988 17.7425 26.2472C18.0173 26.6517 18.2879 27.0093 18.56 27.3876C18.5628 27.4096 18.5963 27.4386 18.6018 27.4828C18.7358 27.683 18.8655 27.839 19.0022 28.0364C19.0608 28.1414 19.1124 28.2049 19.1682 28.3126C19.2798 28.5059 19.3845 28.6522 19.4905 28.8441C19.5686 29.0484 19.6481 29.2086 19.7249 29.4088C19.7667 29.5137 19.8086 29.5772 19.8518 29.6946C19.8965 29.99 19.9411 30.2316 19.9676 30.4953C19.9788 30.5961 20.0081 30.6734 20.0569 30.806C20.0904 31.0545 20.1057 31.2478 20.0946 31.477C20.0946 31.749 20.1211 31.985 20.1643 32.2846C20.1671 32.4793 20.1518 32.6105 20.1378 32.7416C20.1392 32.7416 20.135 32.7485 20.1448 32.8355C20.1825 33.2759 20.209 33.6294 20.2355 34.009C20.2466 34.1499 20.2145 34.3059 20.2773 34.3694C20.4531 34.5475 20.6693 34.6883 20.8688 34.8443C20.9512 34.64 21.0893 34.4384 21.1032 34.2286C21.1339 33.7716 21.1158 33.3091 21.0934 32.8507C21.0572 32.0996 21 31.35 20.9414 30.5368C20.9316 29.366 21 27.3158 21.0083 27.2384C21.0209 27.2177 21.0181 27.2081 21.0362 27.1446C21.0809 26.8063 21.0879 26.497 21.0893 26.1326C21.1088 25.7874 21.1353 25.4975 21.1981 25.1799C21.272 25.0377 21.3097 24.9245 21.3753 24.7713C21.6822 24.2701 21.9612 23.809 22.2793 23.3271C22.3797 23.2125 22.4411 23.1186 22.5415 22.9999C23.3786 22.3869 24.1766 21.7974 25.015 21.2037C25.1336 21.1305 25.2117 21.0615 25.3108 20.9718C25.3331 20.9511 25.3903 20.9317 25.4391 20.929C25.7014 20.7592 25.9135 20.5935 26.1534 20.3864C26.5412 19.997 26.9026 19.6477 27.3016 19.2833C27.395 19.1825 27.4508 19.0969 27.5094 19.0113C27.5122 19.0113 27.5094 19.0085 27.5527 18.9947C27.7033 18.8014 27.8108 18.6206 27.9335 18.3983C28.02 18.2561 28.0898 18.158 28.1916 18.0338C28.2558 17.9109 28.2865 17.8115 28.3228 17.6748C28.3493 17.592 28.3716 17.5478 28.4232 17.4926C28.472 17.3946 28.4916 17.309 28.5125 17.175C28.5362 17.0701 28.5571 17.0121 28.6101 16.921C28.6659 16.7388 28.6897 16.5897 28.7078 16.3991C28.719 16.2776 28.7357 16.1962 28.7775 16.0871C28.7985 15.9394 28.7943 15.8206 28.7845 15.6398C28.7845 15.2007 28.7915 14.8225 28.8166 14.4138C28.811 14.2688 28.7859 14.1542 28.7455 13.9996C28.7273 13.8726 28.7231 13.7856 28.7245 13.6544C28.6994 13.5247 28.6687 13.4404 28.6185 13.3176C28.5892 13.1947 28.5781 13.1091 28.5753 12.9738C28.5041 12.7432 28.426 12.5637 28.3311 12.3525C28.3102 12.2752 28.306 12.2296 28.306 12.1426C28.2628 12.0073 28.2139 11.9135 28.1428 11.7754C28.0967 11.636 28.0758 11.5393 28.0521 11.4013C28.0089 11.2867 27.9684 11.2135 27.9112 11.1086C27.8931 11.0299 27.8903 10.9843 27.8973 10.8877C27.854 10.6585 27.801 10.479 27.7312 10.2401C27.7298 9.76797 27.7438 9.35517 27.7912 8.9106C27.8401 8.72836 27.8582 8.58063 27.8721 8.40115C27.8707 8.32522 27.8833 8.28518 27.9433 8.21615C28.0995 7.96902 28.2223 7.75364 28.3716 7.57692C28.5864 7.73569 28.772 7.8558 28.9561 8.03252C28.9003 8.46466 28.8473 8.83881 28.7803 9.27095C28.7748 9.5664 28.7831 9.80387 28.7789 10.091C28.8194 10.3326 28.8724 10.5232 28.9282 10.7634C28.9491 10.8711 28.9673 10.9318 28.9743 11.0437C29.1082 11.5531 29.2547 12.0115 29.397 12.5002C29.3942 12.5748 29.4081 12.6134 29.4193 12.6908C29.4723 12.9876 29.5379 13.2444 29.602 13.5523C29.6202 13.7456 29.6383 13.885 29.6467 14.0893C29.6411 14.8128 29.6467 15.4727 29.6411 16.1782C29.6244 16.3232 29.6202 16.4198 29.5839 16.5565C29.5086 16.8575 29.4639 17.1184 29.3998 17.4167C29.3663 17.5105 29.3537 17.5658 29.3049 17.6472C29.2519 17.7577 29.2351 17.8405 29.1961 17.9634C29.1138 18.1719 29.0538 18.3403 28.9547 18.535C28.871 18.6703 28.825 18.7807 28.7496 18.9243C28.4985 19.2971 28.2781 19.6339 28.0158 19.9888C27.9293 20.0813 27.8847 20.1572 27.801 20.2442C27.5764 20.4513 27.3908 20.6487 27.1565 20.8558C26.9319 21.0146 26.7575 21.1623 26.5636 21.3045C26.5454 21.299 26.5259 21.3321 26.4771 21.3404C25.6247 21.8913 24.796 22.4035 24.0217 22.9861C23.0368 23.7275 22.2583 24.6608 22.1021 25.913C21.9765 26.9099 22.0142 27.9274 21.9528 28.9822C21.9012 29.1672 21.8761 29.3066 21.8398 29.5151C21.844 29.95 21.8593 30.3159 21.8831 30.7204C21.8831 30.8115 21.8775 30.864 21.8482 30.9565C21.8342 31.089 21.8412 31.1801 21.8538 31.332C21.8482 31.6371 21.837 31.8815 21.8161 32.1604C21.8119 32.1783 21.8035 32.1769 21.7882 32.2391C21.7756 32.2984 21.7617 32.3619 21.7463 32.4296C21.7157 33.3657 21.6612 33.9566 21.7422 34.9534C21.7715 35.3151 21.7938 35.6175 21.798 35.9654C21.6013 36.0689 21.4213 36.1186 21.2483 36.1877C21.0083 36.2829 20.774 36.3934 20.4908 36.5135C20.4126 36.5328 20.3806 36.5356 20.2996 36.5342C20.0234 36.5425 19.7974 36.5549 19.5672 36.5687C19.4696 36.3603 19.3845 36.1766 19.2826 35.9323C19.2561 35.3386 19.2464 34.807 19.2491 34.2092C19.2198 33.6984 19.178 33.2525 19.1194 32.7458C19.0748 32.2943 19.0455 31.905 19.0204 31.5032C19.0231 31.4908 18.998 31.4783 19.0036 31.4217C18.998 31.2906 18.9869 31.216 18.9869 31.0876C18.8557 29.8188 18.4051 28.7295 17.5834 27.8155C17.43 27.6443 17.1007 27.5353 16.865 27.5532C16.5092 27.5808 16.1632 27.7465 15.7573 27.8501C15.5926 27.8749 15.4838 27.9011 15.3373 27.9108C15.1909 27.9136 15.082 27.9343 14.9077 27.9495C13.5335 27.8694 12.2263 27.7962 10.8717 27.7065C10.562 27.5712 10.2983 27.4511 10.0095 27.2937C8.97438 26.4391 7.89878 25.6769 7.33098 24.259C7.65743 24.3861 7.82204 24.451 8.00759 24.5586C9.21712 25.9503 10.6513 26.8519 12.5109 26.9181C13.6674 26.9596 14.8253 26.9554 15.9833 26.9623C16.2274 26.9637 16.4702 26.9237 16.7868 26.8974C16.4841 26.2085 16.0879 25.63 15.9805 25.0032C15.7112 23.4307 15.5745 21.8374 15.4043 20.1972C15.6289 17.846 15.3457 17.534 13.1317 16.921C11.805 16.5524 10.5397 15.967 9.24642 15.4782C8.86417 15.3333 8.4861 15.18 8.08851 14.984C7.71881 14.8142 7.36864 14.6927 6.98779 14.5436C6.88176 14.5118 6.80503 14.5063 6.66692 14.4814C6.22886 14.4732 5.8494 14.4842 5.42809 14.4856C5.27044 14.5077 5.15744 14.5394 4.99282 14.5712C4.32039 14.9274 3.69958 15.285 3.03413 15.6591C2.69094 15.9615 2.35612 16.2169 2.10222 16.5358C0.308143 18.7918 0.423934 23.1021 2.32403 25.5251C2.3338 25.5886 2.35612 25.6148 2.40216 25.6728C2.45238 25.7584 2.49284 25.7998 2.53748 25.8854C2.76069 26.1602 2.98112 26.3921 3.20851 26.6627C3.27129 26.7552 3.3257 26.8091 3.3829 26.9181C3.42057 27.3503 3.45405 27.7272 3.46242 28.1372C3.45684 28.2946 3.47497 28.4203 3.48334 28.5928C3.52799 28.7875 3.581 28.9352 3.63262 29.1327C3.71632 29.3246 3.80142 29.464 3.86839 29.6269C3.84188 29.696 3.85862 29.7291 3.8935 29.8092C3.94512 29.9569 4.00092 30.048 4.03719 30.1792C4.04138 30.3021 4.06649 30.3863 4.08742 30.5174C4.15159 30.6665 4.21855 30.7673 4.26738 30.9151C4.33713 31.2588 4.42502 31.5529 4.50733 31.8884C4.53663 31.9975 4.57151 32.0679 4.60359 32.1811C4.65242 32.3247 4.70125 32.4255 4.75705 32.5773C4.81146 32.6712 4.8589 32.714 4.87982 32.7596C4.85332 32.7623 4.85192 32.8162 4.8575 32.8673C5.2551 33.4761 5.53411 34.2037 6.06564 34.5516C6.80503 35.0348 7.26401 35.5747 7.3812 36.4638C7.41329 36.6184 7.45095 36.7303 7.48165 36.9001C7.72997 37.8789 7.98527 38.7998 8.23778 39.7635C8.30195 39.9278 8.36892 40.0493 8.43867 40.2232C8.64514 40.6292 8.84883 40.9826 9.04693 41.3705C9.04972 41.4506 9.07204 41.4893 9.11528 41.5556C9.15435 41.6246 9.18922 41.6577 9.22968 41.7185C9.23666 41.7461 9.27991 41.7861 9.28828 41.8303C9.48917 42.105 9.68308 42.337 9.88119 42.6117C10.0402 42.8285 10.1937 43.0025 10.3597 43.2192C10.5452 43.4318 10.7168 43.6016 10.8954 43.7963C10.9219 43.8529 10.9512 43.8709 11.0084 43.9137C11.0768 43.9882 11.127 44.0214 11.194 44.0959C11.6697 44.5515 12.1273 44.9657 12.6058 45.4199C12.702 45.5042 12.7564 45.5759 12.8583 45.6574C12.9155 45.7085 12.8764 45.6781 13.0243 45.9432C13.0034 46.0895 13.0341 46.0605 13.0187 46.1599C13.0187 46.2235 13.0173 46.2027 13.0215 46.3767C12.995 46.5148 13.0355 46.6059 13.0159 46.737C13.0285 46.8213 13.0229 46.8544 13.0173 46.9524C13.0117 48.039 13.0229 49.0606 13.0229 50.1113C13.0131 50.1389 13.0285 50.1955 13.0159 50.2604C12.9573 51.2034 12.9127 52.0828 12.8388 52.9941C12.642 53.4676 12.4746 53.9094 12.2891 54.3912C12.0994 54.5901 11.9264 54.7475 11.7157 54.9118C11.6041 54.9863 11.5316 55.054 11.4339 55.1437C11.4088 55.1658 11.346 55.1879 11.3084 55.192C11.194 55.25 11.1158 55.3052 10.9986 55.3908C10.774 55.4875 10.5885 55.5537 10.3639 55.6186C10.2369 55.667 10.149 55.7153 10.0123 55.7995C9.93001 55.8561 9.89653 55.8796 9.84073 55.8961C9.77934 55.9141 9.74028 55.9389 9.64402 55.9679C9.28269 56.0245 8.39821 56.3062 8.04526 56.4442C7.78577 56.4553 7.47327 56.4719 7.35469 56.4083C7.40492 56.3918 8.35915 55.8533 8.48192 55.8423C8.63398 55.8133 8.7135 55.7774 8.79302 55.7429L8.8 55.7401H8.80139Z" fill="white"/>
<path id="Vector_2" d="M9.50353 14.6858C9.23986 14.6126 8.96922 14.556 8.71392 14.4635C6.60734 13.6945 4.65283 13.9347 2.95642 15.423C2.33003 15.9725 1.85151 16.6849 1.30883 17.3255C1.23489 17.4125 1.18467 17.592 1.11491 17.5975C0.230433 17.6555 0.375519 18.4466 0.0881323 18.9782C0.0741815 18.8304 0.0630231 18.6454 0.10348 18.4715C0.512239 16.7125 0.94192 14.9578 1.34231 13.1961C1.86407 10.9029 3.12801 9.04868 4.80629 7.38364C5.35735 6.78169 5.86656 6.19906 6.41203 5.65095C6.96309 5.09732 7.53368 4.56026 8.12379 4.04528C10.2638 2.17867 12.6759 0.813233 15.5819 0.178144C15.7758 0.12568 15.8763 0.100826 16.0199 0.0842582C16.1804 0.0649294 16.2962 0.0373182 16.472 0.0166088C18.0972 0.0166088 19.6625 0.0083257 21.2278 4.19288e-05C21.691 -0.00271933 22.0481 0.12982 22.0927 0.719348C22.0788 1.40276 22.0788 2.02404 22.0788 2.64394C22.9995 1.66646 24.0319 0.999615 25.24 0.520537C25.4312 0.472215 25.5762 0.415612 25.7716 0.354864C25.8873 0.332774 25.9515 0.314825 26.052 0.306542C26.1552 0.294116 26.2236 0.269264 26.3477 0.245794C26.5542 0.21542 26.7035 0.183667 26.9155 0.169861C27.5419 0.179525 28.1069 0.174001 28.7222 0.185046C28.8826 0.215419 28.9914 0.226463 29.1351 0.260978C29.2816 0.289972 29.3932 0.295496 29.5522 0.318967C29.6666 0.346579 29.735 0.356242 29.8257 0.3949C29.9205 0.43908 29.9903 0.452889 30.1103 0.488786C30.5372 0.666887 30.9152 0.824276 31.3156 1.02171C31.5207 1.15425 31.7048 1.24675 31.9141 1.35168C31.9406 1.3641 31.9908 1.39172 32.0076 1.42899C32.1373 1.52978 32.2503 1.59329 32.3633 1.65818C32.4038 1.69131 32.4456 1.72306 32.5042 1.82385C32.341 1.95225 32.1261 1.82799 31.8429 1.80314C31.2542 1.59329 30.519 1.44418 29.8061 1.2716C27.2113 0.642033 24.961 1.14596 23.1683 3.26247C22.295 4.2938 21.9504 5.47561 21.8835 6.74579C21.7914 8.48262 21.8012 10.2264 21.7398 11.9632C21.617 11.9659 21.5235 11.9715 21.4301 11.9301C21.3896 11.7699 21.3478 11.6553 21.3143 11.4882C21.2878 11.3378 21.2543 11.2397 21.2334 11.0865C21.1566 8.12504 21.059 5.21744 20.9836 2.30983C20.9418 0.715209 21.0939 1.03966 19.6527 0.902974C18.0526 0.752485 16.465 0.810469 14.8732 1.34891C12.2281 2.02266 10.1104 3.48199 8.20332 5.27956C7.68435 5.76969 7.22676 6.32332 6.74127 6.84934C6.77615 6.91285 6.81242 6.97636 6.8473 7.03986C8.93015 6.71404 10.8749 7.15998 12.7792 8.02978C13.1572 8.23687 13.506 8.40393 13.8813 8.60412C13.9873 8.65382 14.0668 8.67177 14.1673 8.73113C14.6053 9.02521 15.0253 9.27648 15.4675 9.57056C15.6028 9.67134 15.713 9.73071 15.8414 9.81769C15.8902 9.87705 15.9307 9.89086 16.0018 9.92123C16.1483 10.0317 16.2683 10.1062 16.4106 10.2195C16.5529 10.3382 16.6742 10.4169 16.8165 10.5329C16.9728 10.6682 17.1081 10.7662 17.263 10.9056C17.3536 10.994 17.4276 11.0423 17.5071 11.1224C17.581 11.2011 17.648 11.248 17.7359 11.3433C17.8126 11.4289 17.867 11.4675 17.9354 11.5449C18.1642 11.8099 18.3804 12.0364 18.6078 12.307C18.7055 12.4395 18.792 12.5265 18.8896 12.6563C19.3221 13.4694 19.7434 14.2412 20.1605 15.0516C20.1968 15.1607 20.2359 15.2297 20.2763 15.3526C20.3433 15.6895 20.4103 15.9711 20.4689 16.3108C20.4898 17.523 20.5191 18.6772 20.5247 19.87C20.4982 20.0247 20.4968 20.142 20.4689 20.3049C20.4354 20.4554 20.4256 20.559 20.3879 20.6736C20.2833 20.5714 20.1605 20.4637 20.1438 20.3422C20.0545 19.714 19.9917 19.0817 19.9276 18.3997C19.9178 18.2492 19.9011 18.1484 19.8927 17.9993C19.8564 17.7936 19.8104 17.6376 19.7685 17.4346C19.749 17.3324 19.7281 17.2758 19.7127 17.1806C19.6918 17.0687 19.6639 16.997 19.6374 16.8713C19.4281 16.2625 19.2537 15.6895 18.9984 15.1538C18.0428 13.1547 16.7217 11.4399 14.8802 10.1518C14.8774 10.1559 14.8871 10.1573 14.8648 10.1159C14.3891 9.80388 13.9357 9.53328 13.4558 9.22678C12.1458 8.74494 10.893 8.14161 9.57189 7.89447C7.98847 7.59764 6.33809 7.68738 4.99463 8.76841C2.96479 10.4017 2.12634 12.6411 1.86128 15.1524C1.85709 15.1566 1.87523 15.1566 1.94359 15.1718C2.2226 15.0406 2.45698 14.9012 2.68019 14.7452C4.87326 13.2057 7.32999 13.1823 9.50771 14.6816L9.50353 14.6858Z" fill="white"/>
<path id="Vector_3" d="M38.9982 10.9431C38.8406 10.9072 38.7485 10.5151 38.6662 10.4212C38.4765 10.308 35.5342 7.11871 35.2008 6.70866C35.099 6.4919 34.9427 6.0432 34.88 5.9148C35.1952 6.08048 35.5105 6.24615 35.8928 6.46291C36.0309 6.56922 36.102 6.62444 36.1732 6.67967C36.1899 6.71557 36.215 6.74318 36.2764 6.77631C37.3674 7.95813 37.8459 8.86244 38.6425 9.98627L38.9996 10.9417L38.9982 10.9431Z" fill="white"/>
<path id="Vector_4" d="M35.4483 6.60377C35.5097 6.77358 35.546 6.91027 35.5962 7.09941C34.7982 6.72802 33.9863 6.30417 33.1757 5.83062C33.5259 5.85271 33.8747 5.9245 34.2695 6.01424C34.5373 6.09984 34.7606 6.16473 34.9838 6.231C35.1303 6.34421 35.2767 6.45742 35.4483 6.60239V6.60377Z" fill="white"/>
<path id="Vector_5" d="M34.7361 5.83062C34.9816 5.85409 35.2481 5.93416 35.5731 6.09708C35.7419 6.2379 36.2079 6.59687 36.3055 6.80948C36.2874 6.82743 35.9079 6.83572 35.9079 6.83572C35.5243 6.51955 35.142 6.20339 34.7361 5.83062Z" fill="white"/>
<path id="Vector_6" d="M22.3771 29.6573C22.9254 28.2076 23.3774 26.6807 25.0389 26.0442C25.4644 25.8813 25.9262 25.8109 26.4759 25.6921C26.84 25.6756 27.0995 25.6645 27.398 25.6728C27.5222 25.6908 27.6073 25.6908 27.7552 25.7115C30.4128 26.1602 32.6826 25.6742 34.3804 23.4969C34.5269 23.3078 34.838 23.2443 35.0724 23.1615C34.9301 23.5922 34.7878 23.9843 34.5966 24.3943C34.4697 24.5227 34.3916 24.6318 34.2744 24.7575C33.9549 25.0722 33.6759 25.3705 33.3494 25.6811C31.7172 26.9292 29.9175 27.0217 28.023 26.7179C27.504 26.6351 26.9586 26.6434 26.4326 26.6917C25.5328 26.7759 24.7488 27.1667 24.3261 27.9729C23.5225 29.511 23.0593 31.1567 22.9659 32.9598C22.9393 33.3657 22.9533 33.7122 22.9142 34.0532C22.8542 34.5861 22.758 35.1163 22.6255 35.652C22.0911 35.8605 21.6084 36.0648 21.1076 36.218C20.8244 36.0275 20.5579 35.8881 20.2929 35.7486C20.53 35.6451 20.7644 35.5346 21.0044 35.4394C21.1774 35.3703 21.3587 35.3206 21.6056 35.2199C21.7745 35.097 21.9558 35.0197 21.9586 34.9354C21.9893 34.1706 21.9879 33.4057 21.9907 32.5801C22.02 32.1107 22.0549 31.702 22.1204 31.245C22.2265 30.6831 22.3018 30.1709 22.3771 29.6573Z" fill="white"/>
<path id="Vector_7" d="M29.7762 6.29556C29.7762 6.29556 29.8152 6.26105 29.8878 6.25276C30.1319 6.13265 30.3035 6.02082 30.4765 5.91037C30.5532 5.87447 30.6286 5.83719 30.7974 5.80544C31.029 5.74055 31.1685 5.67152 31.308 5.60387C31.3638 5.58454 31.4182 5.56659 31.5451 5.56245C31.6986 5.53622 31.7823 5.4948 31.866 5.45338C31.9218 5.43543 31.979 5.41886 32.1088 5.42162C32.265 5.42024 32.3487 5.39815 32.4324 5.37606C32.7086 5.36778 32.9849 5.35949 33.3448 5.38711C33.5122 5.41748 33.5973 5.41058 33.6824 5.40367C33.7438 5.4092 33.8052 5.4161 33.9084 5.44095C34.2376 5.58868 34.525 5.71846 34.8599 5.86204C35.0049 6.03324 35.1012 6.19063 35.2016 6.39635C34.8571 6.37288 34.5069 6.30109 34.1163 6.24862C34.0214 6.26243 33.9684 6.2569 33.8414 6.19892C33.2164 6.17407 32.664 6.20168 32.1115 6.22929C31.859 6.30661 31.6065 6.3853 31.2536 6.464C30.9634 6.58273 30.7737 6.70285 30.5839 6.82158C29.8138 7.29376 29.1456 7.86119 28.7382 8.73651C28.515 8.64539 28.3281 8.52527 28.1146 8.3168C28.0853 8.16493 28.0826 8.10004 28.0798 8.03515C28.0798 8.03515 28.0965 7.97855 28.1537 7.93713C28.2583 7.79906 28.3058 7.7038 28.3532 7.60716C28.6964 7.262 29.0396 6.91823 29.4637 6.54546C29.6227 6.44467 29.6994 6.37011 29.7748 6.29694H29.7762V6.29556Z" fill="white"/>
<path id="Vector_8" d="M24.8933 40.3915C22.9039 40.4385 20.9173 40.4854 18.8665 40.5448C18.7479 40.531 18.6949 40.5034 18.5959 40.4716C18.3601 40.2576 18.1704 40.0491 17.9779 39.8075C19.2446 39.3726 20.535 39.479 21.8297 39.6143C22.0808 39.6405 22.3375 39.617 22.6528 39.5991C22.9471 39.6073 23.1801 39.6336 23.5163 39.6709C23.8358 39.7095 24.052 39.7385 24.2697 39.7661C24.465 39.8793 24.6589 39.9925 24.8765 40.1651C24.8975 40.2811 24.8961 40.3377 24.8961 40.3943C24.8961 40.3943 24.8989 40.3902 24.8961 40.3888L24.8933 40.3915Z" fill="white"/>
</g>
</svg>
