<svg width="5" height="9" viewBox="0 0 5 9" fill="none" xmlns="http://www.w3.org/2000/svg">
<path id="Vector" d="M0 0.96467C0.201233 0.631344 0.401038 0.326264 0.615115 0C1.28732 0.316377 1.74259 0.6836 1.97522 1.34178C2.13364 1.79092 3.70354 2.07764 3.05417 2.66096C3.90334 2.97733 4.68544 5.11994 4.78819 5.84168C4.90808 6.68205 4.58696 7.50689 4.79533 8.33173C5.07078 9.42775 4.253 8.58455 3.0556 8.795C3.26682 9.37832 2.62459 8.53512 2.62744 8.49134C2.59319 8.39671 2.52326 8.17778 2.48615 8.12693C2.43477 8.02383 2.38482 7.92072 2.35485 7.74559C2.33059 7.59446 2.28634 7.51396 2.2421 7.43345C2.15219 7.1312 2.06085 6.83035 1.9952 6.42782C1.94953 6.22584 1.8796 6.12415 1.80967 6.02246C1.78398 5.9363 1.75972 5.85156 1.74402 5.67219C1.70691 5.48293 1.65981 5.38547 1.61271 5.28942C1.57133 5.26541 1.55563 5.23152 1.58417 5.10723C1.51852 4.88689 1.43146 4.74424 1.3444 4.60159C1.29017 4.45046 1.23451 4.30075 1.21453 4.06771C1.23023 3.85867 1.21168 3.73014 1.19312 3.60302C1.15887 3.21744 1.12462 2.83044 1.07181 2.35305C1.00188 2.20334 0.950501 2.14543 0.899123 2.08894C0.675055 1.85165 0.449563 1.61437 0.201233 1.29376C0.142719 1.16382 0.107036 1.11721 0.0727833 1.0706C0.0356766 1.05648 0.0114159 1.02964 0.0028528 0.96467M0.766396 0.635579C0.787804 0.639816 0.809213 0.644053 0.830621 0.64829C0.804932 0.659589 0.792085 0.64829 0.766396 0.635579Z" fill="#F98938"/>
</svg>
