<svg width="34" height="35" viewBox="0 0 34 35" fill="none" xmlns="http://www.w3.org/2000/svg">
<path id="Vector" d="M32.5842 3.04133C32.6278 3.10669 32.7444 3.29163 32.7795 3.33196C32.802 3.37645 32.8287 3.42791 32.8821 3.55027C32.8877 3.58087 32.9496 3.67264 32.9285 3.7672C33.1013 3.96466 33.0086 3.88957 33.1392 4.09955C33.3823 4.33872 33.3121 4.41103 33.4203 4.45553C33.4568 4.52228 33.5144 4.59458 33.5931 4.67246C33.8039 4.9895 34.0975 5.54851 33.9683 5.56798C33.8671 5.58327 33.3641 5.27179 33.2657 5.28013C33.1505 5.30655 32.7233 5.11465 32.6151 5.01314C32.2034 5.02566 31.6737 4.87269 31.5697 4.88799C31.38 4.95057 31.0091 4.85879 30.8236 4.92971C30.7042 4.96864 30.1464 5.05486 30.0241 5.09518C29.8049 5.2106 29.233 5.40945 29.0335 5.52765C29.0082 5.53321 28.4701 5.74596 28.4293 5.7557C28.3113 5.83774 28.1736 5.97124 28.0541 6.0644C27.6677 6.43151 27.6663 6.52051 27.2841 6.88901C27.1998 7.00581 27.0818 7.20327 27.013 7.32147C26.9933 7.34372 26.9469 7.39795 26.909 7.42437C26.753 7.76784 26.583 7.39795 26.4635 7.71639C26.4383 7.75393 26.4551 7.74559 26.4242 7.85683C26.3778 8.07237 26.4453 8.18918 26.427 8.33797C26.4116 8.75374 26.2696 9.15145 26.2584 9.6743C26.3174 9.96492 26.4636 10.1276 26.5183 10.3098C26.5212 10.3571 26.5226 10.4029 26.5282 10.51C26.583 10.6532 26.3554 10.7548 26.4059 10.8382C26.4284 10.9355 26.4495 11.0315 26.4888 11.2136C26.5563 11.393 26.7797 11.3736 26.8289 11.4681C26.8345 11.514 26.8064 11.6572 26.8162 11.7699C26.9034 12.0285 27.1436 12.1467 27.2251 12.3386C27.2364 12.4234 27.1675 12.5931 27.1816 12.746C27.2223 12.9101 27.242 13.0241 27.2799 13.1215C27.2841 13.2091 27.3656 13.287 27.3713 13.4483C27.3937 13.636 27.3979 13.7723 27.4204 13.8863C27.4148 14.2659 27.4303 14.6511 27.4106 15.1253C27.398 15.338 27.4752 15.5842 27.4752 15.7024C27.4584 15.783 27.3305 16.2169 27.2884 16.374C27.2378 16.5993 27.1858 16.755 27.1605 16.9038C27.1394 16.9622 27.0621 16.9372 27.0101 17.0707C26.9582 17.2209 26.9258 17.3766 26.9062 17.4517C26.8837 17.4962 26.9863 17.104 26.93 17.2125C26.8626 17.3752 26.9188 17.5407 26.8865 17.6394C26.8162 17.7395 26.7825 17.7938 26.6575 17.9592C26.4917 18.1998 26.3891 18.3277 26.2781 18.503C26.2781 18.503 26.1952 18.6225 26.1558 18.6364C26.0589 18.7366 26.0223 18.8033 25.9661 18.8909C25.6022 19.2427 25.206 19.6043 24.769 20.0034C24.4809 20.2147 24.2688 20.4372 24.051 20.6013C24.051 20.6013 23.954 20.7404 23.8922 20.7682C23.7517 20.8641 23.6477 20.8099 23.569 20.8766C22.7653 21.4704 21.9616 22.0294 21.0763 22.6635C20.9344 22.8026 20.9991 22.9472 20.9386 23.0445C20.6576 23.509 20.2248 23.8107 19.8764 24.3419C19.7724 24.5241 19.882 24.6868 19.8455 24.8022C19.8188 25.0942 19.6951 25.3528 19.6473 25.7478C19.6122 26.1496 19.5293 26.3012 19.5167 26.6002C19.5167 26.6002 19.5687 26.8713 19.5082 26.8964C19.3916 27.162 19.4829 27.3525 19.4745 27.5944C19.4506 28.2883 19.608 28.889 19.615 29.5829C19.6192 29.9681 19.5954 34.6543 19.1443 34.6223C18.0849 34.5959 17.9303 30.0585 17.8895 30.039C17.8446 29.7957 17.8277 29.4717 17.7982 29.1477C17.7617 28.9933 17.7771 28.8835 17.7251 28.8098C17.6465 28.6485 17.3682 28.547 17.2952 28.2897C17.187 28.0491 17.1153 27.8906 17.0015 27.746C16.9509 27.682 16.875 27.4665 16.8146 27.3135C16.6727 27.0702 16.5533 27.0173 16.4212 26.863C16.4212 26.863 16.046 26.6697 16.0517 26.5877C16.1514 25.8437 15.8311 26.2678 15.8015 25.8646C15.2479 24.9329 15.1257 24.3544 15.1383 24.2891C14.8447 23.7843 14.6016 21.2938 14.7688 21.1144C14.4161 20.3343 -0.674836 14.6984 0.0235064 14.7053C-0.05518 13.1451 1.13776 8.57158 2.92788 8.13912C2.98127 7.80121 7.84578 3.37784 7.90761 3.03994C7.95398 2.78547 12.5754 0.320005 13.5126 0.0418933C14.7603 0.118374 18.2282 -0.0971603 19.2736 0.0571917C20.2108 3.98135 23.7236 10.517 22.6768 12.1703C21.807 13.2661 21.7873 11.5682 22.3803 12.2635C22.7653 12.4957 22.6557 13.4691 22.9887 13.7472C23.1882 13.9141 21.911 12.3038 22.1147 12.4651C22.289 12.2399 25.924 13.5776 24.7844 13.9795C26.0954 14.6747 21.0735 15.9874 21.0707 15.8094C21.0651 15.3631 21.2506 15.1656 21.7072 15.078C22.3367 14.957 22.3986 14.7137 22.1161 14.1394C21.9672 13.8362 21.852 13.5067 21.7873 13.1757C21.637 12.4012 20.7447 13.5136 20.038 13.4232C20.0717 11.6697 20.0562 7.84849 20.1504 6.09917C20.2192 4.81985 20.5649 3.62815 21.4445 2.59079C23.2501 0.459063 25.7216 -0.0888199 28.3352 0.545275C29.0532 0.719095 30.1478 0.934635 30.8897 1.21414C31.7426 1.74533 31.7777 2.47676 32.5589 3.01769L32.5828 3.04411L32.5842 3.04133Z" fill="#1FA5A3"/>
</svg>
