<svg width="12" height="22" viewBox="0 0 12 22" fill="none" xmlns="http://www.w3.org/2000/svg">
<path id="Vector" d="M10.1927 12.0133C10.1856 12.9464 10.64 13.7208 11.1399 14.491C11.3927 14.8817 11.9437 15.7853 11.1925 16.1985C10.9823 16.3138 11.9551 17.1542 11.8557 17.4901C11.7236 17.9356 11.1058 18.1014 11.0135 18.5525C10.9738 18.7437 10.9937 19.2173 11.1186 19.3859C11.441 19.8216 9.66586 19.2032 9.17734 19.3902C8.70303 19.5714 8.15629 21.7554 7.83677 21.8636C7.40364 22.3162 6.95489 21.4645 6.56436 21.8636C6.39963 21.0345 6.09005 19.6698 5.33881 19.1765C4.79776 18.8224 4.51373 18.0817 4.17007 17.4563C5.35585 17.1935 5.47231 17.0024 5.19823 15.9118C4.99089 15.0897 4.76083 14.2675 4.64155 13.4327C4.5393 12.7146 4.2638 12.5178 3.41884 12.203C4.06357 11.624 3.51966 10.8468 3.36203 10.3999C3.13056 9.74497 2.80678 9.34443 2.13791 9.02822C1.92631 9.35286 1.72608 9.65643 1.52727 9.9614C-0.40833 7.52164 -0.526199 3.13402 1.30005 0.837611C1.55851 0.512966 1.90075 0.25297 2.25862 0C2.59518 0.736424 3.03825 0.999231 3.82073 0.746261C5.04485 0.349941 5.98638 0.602911 6.82424 1.59371C7.66352 2.58732 7.79701 4.02785 7.15228 5.12264C6.75749 5.79161 6.55158 6.5716 6.29454 7.31224C6.25762 7.41905 6.39395 7.59894 6.47632 7.72823C6.74045 8.14282 7.01737 8.55039 7.29003 8.96076C7.12246 8.89471 9.66444 9.31351 9.33072 9.18281C9.9087 10.6261 9.07652 10.9044 10.1302 11.7744L10.1927 12.0147V12.0133Z" fill="#F98938"/>
</svg>
