<svg width="15" height="20" viewBox="0 0 15 20" fill="none" xmlns="http://www.w3.org/2000/svg">
<path id="Vector" d="M1.24054 15.0815C1.32719 15.0331 1.41244 14.9861 1.53264 14.9017C1.86946 14.8132 2.17274 14.762 2.54589 14.7247C2.6619 14.7053 2.70801 14.6735 2.75414 14.6403C2.78768 14.6168 2.7779 14.484 2.89949 14.4356C3.07558 14.3554 3.20556 14.4121 3.29361 14.3595C3.47949 14.2932 3.5899 14.105 3.85405 14.0124C4.00918 13.9266 4.16012 13.9861 4.23699 13.9266C4.23699 13.9266 4.25516 13.8381 4.31945 13.8132C4.45641 13.7178 4.53607 13.65 4.60735 13.5795C4.78065 13.4218 4.89246 13.289 5.12306 13.0691C5.34109 12.5573 5.48365 11.9903 5.64437 11.5407C5.69049 10.6597 5.84981 9.93632 5.9183 8.97921C5.95184 8.87132 5.94765 8.84228 5.92668 8.81461C5.9169 7.78972 5.90572 6.76622 5.95324 5.68047C6.09439 5.61961 6.17825 5.61961 6.30683 5.63898C6.60172 5.8174 6.85329 5.97508 7.10346 6.13414C7.13561 6.09264 7.16775 6.05115 7.1999 6.00965C7.02939 5.7275 6.85748 5.44672 6.72331 5.13275C7.04336 5.18531 7.35363 5.2268 7.60939 5.36512C8.69952 5.95432 9.75191 5.58642 9.9294 4.50897C10.1195 4.52695 10.3109 4.54493 10.4255 4.55599C10.5513 4.0885 10.5499 3.59611 10.7917 3.29182C11.3186 2.62792 11.3438 1.91424 11.3032 1.14384C11.2837 0.763484 11.3438 0.377591 11.4136 0C11.5129 0.0318117 11.566 0.0580913 11.6373 0.130014C12.5122 0.994463 13.3675 1.8188 14.2326 2.63069C14.3053 2.69985 14.4506 2.69293 14.561 2.78422C14.6589 4.78283 14.7581 6.71919 14.8112 8.68184C14.3626 8.75376 13.9503 8.88101 13.5604 8.83398C12.5499 8.71088 11.5506 8.51033 10.5164 8.30424C10.0957 8.08294 9.70439 7.89761 9.31306 7.71227L9.17889 7.93634C9.66805 8.27382 10.1558 8.61268 10.6715 8.98474C10.863 9.13412 11.0293 9.2503 11.2124 9.40244C11.3172 9.50202 11.4025 9.56704 11.5157 9.668C11.682 9.82291 11.8301 9.93218 11.9615 10.058C12.8783 10.9446 13.7924 11.8354 14.6645 12.7468C14.5624 13.029 14.4576 13.2876 14.4562 13.5477C14.4436 15.3692 14.4562 17.1894 14.452 19.011C14.4506 19.9045 14.4408 19.8906 13.5687 19.8962C13.0167 19.8989 12.466 19.9612 11.8679 19.9999C11.7589 19.993 11.6974 19.9819 11.6359 19.9695C11.3396 19.8602 11.0503 19.7164 10.7442 19.6486C8.50385 19.1548 6.24673 18.7316 4.02455 18.1686C2.93163 17.892 1.89042 17.3955 0.852008 16.9432C-0.144479 16.5089 -0.222745 16.1534 0.388004 15.2572C0.57109 15.1922 0.745791 15.1673 1.00155 15.159C1.13432 15.1465 1.18743 15.1161 1.24054 15.0857M7.46544 6.1286C7.66529 6.28627 7.95459 6.07466 8.15305 6.23233L8.32077 6.79665C8.24809 6.72058 8.1866 6.62929 8.10134 6.56981C7.91546 6.44257 7.7184 6.33192 7.53392 6.2517C7.5423 6.29873 7.54929 6.34714 7.6038 6.47853M8.72886 7.13136C8.71069 7.14381 8.69253 7.15626 8.67436 7.16871C8.69253 7.16456 8.71069 7.16179 8.72886 7.13136Z" fill="#F78135"/>
</svg>
